<svg width="112" height="36" viewBox="0 0 112 36" fill="none" xmlns="http://www.w3.org/2000/svg">
<path d="M40.3486 22.2415C39.8572 22.7662 39.4291 23.3466 39.0733 23.9709H19.8256L18.4303 18.4226H37.4615C38.1295 19.8928 39.1154 21.1971 40.3486 22.2415Z" fill="#AD33E5"/>
<path d="M37.9421 30.3598V35.9082H25.2867C23.0063 35.9106 20.7908 35.1501 18.994 33.7482C17.1972 32.3463 15.9228 30.3838 15.3742 28.1741L10.8269 10.208C10.506 8.95855 9.78925 7.84614 8.78331 7.03669C7.77736 6.22724 6.53629 5.76415 5.24514 5.71649L0 5.54834L0.168582 0L5.46159 0.168149C7.52394 0.246481 9.52747 0.876274 11.2627 1.9917C12.9979 3.10712 14.4011 4.66728 15.326 6.50915C15.7254 7.26802 16.0247 8.07537 16.2162 8.91103L17.0344 12.0815L20.0419 24.0188L20.7635 26.9011C21.0124 27.9083 21.5945 28.8023 22.4153 29.4387C23.236 30.075 24.2476 30.4164 25.2867 30.4078L37.9421 30.3598Z" fill="#FB6377"/>
<path d="M15.2066 6.50901H38.6647C37.4401 8.11453 36.6825 10.026 36.4752 12.0333H16.9147L16.0968 8.86281C15.9013 8.04366 15.6022 7.25273 15.2066 6.50901Z" fill="#2E98FC"/>
<path d="M55.6497 13.7387C55.6501 12.774 55.4564 11.819 55.0802 10.9304C54.704 10.0417 54.1529 9.23759 53.4596 8.56558C52.7662 7.89356 51.9448 7.36743 51.0439 7.01829C50.1431 6.66916 49.1813 6.50411 48.2153 6.53305C47.0659 6.52365 45.9271 6.75266 44.871 7.20557C43.7617 7.69104 42.7997 8.45928 42.0818 9.43315C41.3638 10.407 40.9154 11.5522 40.781 12.7539C40.7443 13.1213 40.7443 13.4915 40.781 13.8588C40.756 14.837 40.9306 15.8099 41.2946 16.7184C41.6587 17.6269 42.2044 18.4518 42.8982 19.1429C43.4273 19.655 44.0368 20.077 44.7027 20.392C45.1533 20.6295 45.6294 20.8148 46.1221 20.9443C46.8366 21.131 47.5732 21.2199 48.3117 21.2086C49.0422 21.2213 49.7708 21.1324 50.4768 20.9443C51.5708 20.6692 52.5811 20.1316 53.4196 19.3781C54.2582 18.6247 54.8998 17.6782 55.2887 16.621H51.2469C50.884 17.038 50.4249 17.3609 49.9094 17.5617C49.3939 17.7625 48.8375 17.8354 48.2876 17.7739C47.4657 17.8407 46.6481 17.5998 45.9944 17.0981C45.3406 16.5964 44.8972 15.8698 44.7506 15.0598H55.7219L55.6497 13.7387ZM44.7747 12.2495C44.9579 11.5169 45.4028 10.8764 46.0258 10.4481C46.6726 10.0172 47.4381 9.79889 48.2153 9.82369C48.9836 9.76924 49.7476 9.97738 50.3816 10.4139C51.0157 10.8504 51.4818 11.4893 51.7039 12.2256L44.7747 12.2495Z" fill="#2A2367"/>
<path d="M68.2582 15.3479H72.1318C71.8255 17.0134 70.9262 18.5121 69.5995 19.5672C68.2728 20.6223 66.6084 21.1626 64.9139 21.0884C63.7753 21.1384 62.641 20.9185 61.6039 20.4468C60.5668 19.975 59.6564 19.2649 58.9471 18.3743C57.9213 17.0486 57.3782 15.4136 57.4073 13.7386C57.367 12.1441 57.8579 10.5814 58.8029 9.2952C59.521 8.3669 60.4491 7.6217 61.5114 7.12069C62.5736 6.61969 63.7396 6.37712 64.9139 6.41291C66.6073 6.3275 68.2741 6.86065 69.6024 7.9127C70.9308 8.96475 71.8299 10.4637 72.1318 12.1294H68.2582C67.9823 11.4591 67.5063 10.8898 66.8951 10.4988C66.2839 10.1078 65.5672 9.91394 64.8419 9.94368C64.3463 9.92881 63.8531 10.0181 63.3943 10.2059C62.9355 10.3936 62.5212 10.6756 62.1787 11.0334C61.8361 11.3913 61.5727 11.8171 61.4056 12.2831C61.2386 12.7492 61.1715 13.245 61.2089 13.7386C61.1751 14.2303 61.2446 14.7236 61.4133 15.1867C61.582 15.6499 61.8459 16.0727 62.1881 16.4279C62.5303 16.7831 62.9431 17.0629 63.4001 17.2492C63.8572 17.4355 64.3485 17.5242 64.8419 17.5096C65.5658 17.5483 66.2835 17.3609 66.8957 16.9735C67.508 16.5861 67.9843 16.0179 68.2582 15.3479Z" fill="#2A2367"/>
<path d="M81.2495 6.41305C80.2737 6.36754 79.2989 6.52025 78.3839 6.86194C77.469 7.20362 76.6329 7.72717 75.9266 8.40086C75.2202 9.07456 74.6581 9.88437 74.2745 10.7813C73.8909 11.6782 73.6937 12.6435 73.6948 13.6187C73.6833 15.3963 74.3305 17.1154 75.5119 18.4456C76.6932 19.7757 78.3255 20.6229 80.0947 20.8243C80.4793 20.849 80.865 20.849 81.2495 20.8243H82.308C84.0903 20.6395 85.7402 19.7995 86.9364 18.4677C88.1326 17.1359 88.7898 15.4075 88.7802 13.6187C88.7811 12.6456 88.5847 11.6824 88.2025 10.7871C87.8204 9.89191 87.2604 9.08323 86.5566 8.40988C85.8529 7.73652 85.0199 7.21246 84.1078 6.86927C83.1957 6.52608 82.2234 6.37088 81.2495 6.41305ZM81.2495 17.5097C80.7531 17.5274 80.2586 17.4412 79.7975 17.2567C79.3364 17.0722 78.9192 16.7933 78.5725 16.4382C78.2258 16.083 77.9571 15.6594 77.7842 15.1945C77.6113 14.7296 77.5378 14.2337 77.5683 13.7388C77.5343 13.2419 77.6052 12.7434 77.7766 12.2756C77.9479 11.8078 78.2157 11.3812 78.5628 11.0234C78.9099 10.6656 79.3285 10.3846 79.7913 10.1986C80.2542 10.0126 80.751 9.92583 81.2495 9.94382C81.7452 9.92895 82.2384 10.0183 82.6972 10.206C83.156 10.3937 83.5702 10.6757 83.9128 11.0336C84.2554 11.3914 84.5187 11.8172 84.6858 12.2833C84.8529 12.7493 84.9199 13.2452 84.8826 13.7388C84.9164 14.2304 84.8465 14.7237 84.6779 15.1869C84.5092 15.65 84.2453 16.0729 83.9031 16.4281C83.5609 16.7833 83.148 17.063 82.691 17.2493C82.234 17.4356 81.743 17.5243 81.2495 17.5097Z" fill="#2A2367"/>
<path d="M106.489 6.41308C105.547 6.35999 104.607 6.55368 103.763 6.975C102.919 7.39631 102.2 8.03063 101.677 8.81496C101.154 8.03063 100.435 7.39631 99.591 6.975C98.7469 6.55368 97.8071 6.35999 96.8649 6.41308C96.0303 6.3586 95.1941 6.49048 94.4169 6.79908C93.6397 7.10767 92.941 7.58525 92.3719 8.19712C91.8028 8.80899 91.3774 9.53973 91.1266 10.3363C90.8759 11.1329 90.8061 11.9752 90.9222 12.8021V20.7043H94.7235V12.8021C94.7235 10.7605 95.7822 9.94385 97.1295 9.94385C98.4769 9.94385 99.5355 10.7605 99.5355 12.8021V20.7043H103.337V12.8021C103.337 10.7605 104.396 9.94385 105.743 9.94385C107.09 9.94385 108.149 10.7605 108.149 12.8021V20.7043H111.95V12.8021C112.055 12.0168 111.993 11.2182 111.769 10.4583C111.544 9.69847 111.162 8.9943 110.647 8.39166C110.132 7.78901 109.495 7.30138 108.779 6.96048C108.062 6.61959 107.282 6.43309 106.489 6.41308Z" fill="#2A2367"/>
<path d="M53.1966 29.7112V35.6918H50.9833V29.7112C51.0202 28.8693 50.8113 28.0348 50.3818 27.3093C50.0663 26.8495 49.6364 26.4793 49.1345 26.2351C48.6326 25.9909 48.0758 25.881 47.5186 25.9162C47.0282 25.8857 46.5372 25.9651 46.0815 26.1485C45.6258 26.3319 45.2168 26.6147 44.8847 26.9762C44.5526 27.3376 44.3056 27.7687 44.1619 28.2378C44.0182 28.7068 43.9814 29.202 44.0541 29.6871V35.6678H41.8164V29.6871C41.7432 28.7716 41.9009 27.8523 42.2749 27.0132C42.6489 26.1741 43.2275 25.4419 43.9578 24.8834C44.1307 24.7225 44.3357 24.5997 44.5593 24.5231C45.007 24.2528 45.5073 24.0807 46.0269 24.0187C46.5149 23.8994 47.0162 23.8429 47.5186 23.8506C48.5098 23.8209 49.4933 24.0353 50.3818 24.475C50.7513 24.6222 51.0867 24.8429 51.3681 25.1236C52.004 25.6977 52.4996 26.4098 52.8166 27.2051C53.1336 28.0005 53.2636 28.8578 53.1966 29.7112Z" fill="#2A2367"/>
<path d="M67.343 29.9034C67.3668 29.0959 67.2239 28.2922 66.923 27.5423C66.6222 26.7924 66.1699 26.1124 65.5943 25.5446C65.0188 24.9768 64.3325 24.5334 63.5778 24.2419C62.8231 23.9505 62.0164 23.8173 61.208 23.8506C60.3964 23.8141 59.586 23.9448 58.8273 24.2344C58.0685 24.5241 57.3776 24.9666 56.7975 25.5344C56.2175 26.1022 55.7606 26.7831 55.4556 27.5348C55.1506 28.2864 55.0038 29.0926 55.0245 29.9034C55.0036 30.713 55.1504 31.5183 55.4556 32.2687C55.7609 33.0192 56.2183 33.6986 56.7987 34.2645C57.3791 34.8305 58.0703 35.2707 58.829 35.5576C59.5877 35.8446 60.3976 35.972 61.208 35.9321C62.3903 35.9949 63.5635 35.6948 64.5699 35.0722C65.5764 34.4495 66.3679 33.5343 66.8379 32.4493H64.4319C64.0687 32.9451 63.5829 33.3384 63.0221 33.5909C62.4613 33.8435 61.8447 33.9467 61.2321 33.8905C60.2998 33.9528 59.379 33.6565 58.6587 33.0624C57.9384 32.4684 57.4729 31.6216 57.3582 30.6959H67.3671L67.343 29.9034ZM57.4064 28.7265C57.599 27.88 58.0877 27.1298 58.7844 26.6104C59.481 26.091 60.3403 25.8363 61.208 25.8922C62.0746 25.8412 62.9313 26.0978 63.6269 26.6164C64.3225 27.135 64.8122 27.8824 65.0093 28.7265H57.4064Z" fill="#2A2367"/>
<path d="M73.8398 28.9185C72.4443 28.7264 71.2171 28.6063 71.2171 27.5014C71.2171 26.3966 72.0351 25.9162 73.623 25.9162C75.211 25.9162 75.8126 26.5647 75.8848 27.4534H78.0743C78.0743 25.4839 76.342 23.8986 73.5752 23.8986C70.8083 23.8986 69.0519 25.4598 69.0519 27.6936C69.0519 30.3356 71.4578 30.6959 73.5029 30.9361C74.9465 31.1283 76.1494 31.2724 76.1494 32.3532C76.1494 33.4341 75.2833 33.9866 73.7434 33.9866C72.2036 33.9866 71.3373 33.314 71.193 32.3532H68.9556C68.9556 34.4669 70.8323 35.9801 73.7675 35.9801C76.7028 35.9801 78.5795 34.4909 78.5795 32.1611C78.5795 29.8313 75.8608 29.1587 73.8398 28.9185Z" fill="#2A2367"/>
<path d="M87.1678 31.0803V31.3206C87.1678 33.194 86.2054 33.9386 84.7618 33.9386C83.3183 33.9386 82.3559 33.17 82.3559 31.3206V26.2286H88.6836V24.211H82.3559V20.1518H80.1426V31.3206C80.0753 31.9447 80.1481 32.576 80.3558 33.1686C80.5634 33.7611 80.9006 34.3002 81.3429 34.7464C81.7853 35.1926 82.3216 35.5348 82.913 35.7482C83.5044 35.9616 84.1359 36.0409 84.7618 35.9802C85.3877 36.0409 86.0193 35.9616 86.6107 35.7482C87.202 35.5348 87.7384 35.1926 88.1808 34.7464C88.6231 34.3002 88.9605 33.7611 89.1682 33.1686C89.3758 32.576 89.4487 31.9447 89.3814 31.3206V31.0803H87.1678Z" fill="#2A2367"/>
</svg>
